<?xml version="1.0" encoding="UTF-8" standalone="no"?>
<!-- Created with Inkscape (http://www.inkscape.org/) -->

<svg
   xmlns:dc="http://purl.org/dc/elements/1.1/"
   xmlns:cc="http://creativecommons.org/ns#"
   xmlns:rdf="http://www.w3.org/1999/02/22-rdf-syntax-ns#"
   xmlns:svg="http://www.w3.org/2000/svg"
   xmlns="http://www.w3.org/2000/svg"
   xmlns:sodipodi="http://sodipodi.sourceforge.net/DTD/sodipodi-0.dtd"
   xmlns:inkscape="http://www.inkscape.org/namespaces/inkscape"
   width="15"
   height="15"
   id="svg3070"
   version="1.1"
   inkscape:version="0.48.4 r9939"
   sodipodi:docname="Neues Dokument 4">
  <defs
     id="defs3072" />
  <sodipodi:namedview
     id="base"
     pagecolor="#ffffff"
     bordercolor="#666666"
     borderopacity="1.0"
     inkscape:pageopacity="0.0"
     inkscape:pageshadow="2"
     inkscape:zoom="5.6"
     inkscape:cx="7.7680781"
     inkscape:cy="6.798142"
     inkscape:document-units="px"
     inkscape:current-layer="layer1"
     showgrid="false"
     fit-margin-top="0"
     fit-margin-left="0"
     fit-margin-right="0"
     fit-margin-bottom="0"
     inkscape:window-width="635"
     inkscape:window-height="423"
     inkscape:window-x="904"
     inkscape:window-y="385"
     inkscape:window-maximized="0" />
  <metadata
     id="metadata3075">
    <rdf:RDF>
      <cc:Work
         rdf:about="">
        <dc:format>image/svg+xml</dc:format>
        <dc:type
           rdf:resource="http://purl.org/dc/dcmitype/StillImage" />
        <dc:title></dc:title>
      </cc:Work>
    </rdf:RDF>
  </metadata>
  <g
     inkscape:label="Ebene 1"
     inkscape:groupmode="layer"
     id="layer1"
     transform="translate(-406.78125,-593.34375)">
    <path
       inkscape:connector-curvature="0"
       style="opacity:0.3;color:#000000;fill:#ffffff;fill-opacity:1;fill-rule:nonzero;stroke:#ffffff;stroke-width:2;stroke-linecap:butt;stroke-linejoin:round;stroke-miterlimit:4;stroke-opacity:1;stroke-dasharray:none;stroke-dashoffset:0;marker:none;visibility:visible;display:inline;overflow:visible;enable-background:accumulate"
       d="m 414.28125,594.42411 c -3.22874,0 -6.5,3 -6.5,6.5 0,3.5 4,6.33929 6.5,6.33929 2.5,0 6.5,-2.83929 6.5,-6.33929 0,-3.5 -3.27126,-6.5 -6.5,-6.5 z m 0,2 c 2.51124,0 4.5,1.77778 4.5,4.5 0,2.72222 -2.55556,4.4477 -4.5,4.4477 -1.94444,0 -4.5,-1.72548 -4.5,-4.4477 0,-2.72222 1.98876,-4.5 4.5,-4.5 z"
       id="path4077"
       sodipodi:nodetypes="sszsssszss" />
    <path
       id="path7962-4-3-5-3-7-1"
       d="m 414.28125,594.42411 c -3.22874,0 -6.5,3 -6.5,6.5 0,3.5 3.36865,6.33929 6.5,6.33929 3.13135,0 6.5,-2.83929 6.5,-6.33929 0,-3.5 -3.27126,-6.5 -6.5,-6.5 z m 0,2 c 2.51124,0 4.5,1.77778 4.5,4.5 0,2.72222 -2.55556,4.5 -4.5,4.5 -1.94444,0 -4.5,-1.77778 -4.5,-4.5 0,-2.72222 1.98876,-4.5 4.5,-4.5 z"
       style="color:#000000;fill:#444444;fill-opacity:1;fill-rule:nonzero;stroke:none;stroke-width:2;marker:none;visibility:visible;display:inline;overflow:visible;enable-background:accumulate"
       inkscape:connector-curvature="0"
       sodipodi:nodetypes="sszsssszss" />
  </g>
</svg>
